<svg width="38" height="38" viewBox="0 0 38 38" fill="none" xmlns="http://www.w3.org/2000/svg">
<rect width="38" height="38" rx="11" fill="#298021"/>
<g clip-path="url(#clip0_232_127)">
<path d="M19 8C12.9251 8 8 12.9251 8 19C8 25.0749 12.9251 30 19 30C25.0749 30 30 25.0749 30 19C30 12.9251 25.0749 8 19 8ZM22.1597 23.3366C21.6798 23.9206 21.0551 24.3144 20.3263 24.5136C20.0095 24.5996 19.8646 24.7671 19.8827 25.0975C19.8963 25.4235 19.8827 25.7449 19.8782 26.0708C19.8782 26.3605 19.7288 26.5144 19.4436 26.5235C19.258 26.528 19.0724 26.5325 18.8868 26.5325C18.7239 26.5325 18.5609 26.5325 18.3979 26.528C18.0901 26.5235 17.9453 26.3469 17.9453 26.0481C17.9407 25.8128 17.9407 25.5728 17.9407 25.3374C17.9362 24.8123 17.9181 24.7942 17.4156 24.7128C16.7728 24.6086 16.1391 24.4638 15.5506 24.1786C15.0889 23.9523 15.0391 23.8391 15.1704 23.3502C15.27 22.9881 15.3695 22.6259 15.4827 22.2683C15.5642 22.0058 15.6412 21.8881 15.7815 21.8881C15.863 21.8881 15.9671 21.9288 16.1074 22.0012C16.7593 22.3407 17.4519 22.5309 18.1807 22.6214C18.3029 22.635 18.4251 22.644 18.5473 22.644C18.8868 22.644 19.2173 22.5807 19.5387 22.4403C20.349 22.0872 20.4757 21.1502 19.7922 20.5889C19.5613 20.3988 19.2942 20.2584 19.0181 20.1362C18.3074 19.8239 17.5695 19.5885 16.8996 19.1856C15.8132 18.5337 15.1251 17.642 15.2066 16.3202C15.2971 14.8263 16.1436 13.8938 17.5152 13.3959C18.0811 13.1922 18.0856 13.1967 18.0856 12.6082C18.0856 12.4091 18.0811 12.2099 18.0901 12.0062C18.1037 11.5626 18.1761 11.4856 18.6198 11.472C18.6695 11.472 18.7239 11.472 18.7737 11.472C18.8597 11.472 18.9457 11.472 19.0317 11.472C19.0679 11.472 19.1041 11.472 19.1358 11.472C19.9778 11.472 19.9778 11.5082 19.9823 12.4181C19.9868 13.0881 19.9868 13.0881 20.6523 13.1922C21.1638 13.2737 21.6481 13.423 22.1189 13.6313C22.377 13.7444 22.4765 13.9255 22.3951 14.2016C22.2774 14.6091 22.1642 15.021 22.0374 15.4239C21.956 15.6683 21.879 15.7815 21.7342 15.7815C21.6527 15.7815 21.5531 15.7498 21.4263 15.6864C20.7745 15.3695 20.0909 15.2156 19.3757 15.2156C19.2852 15.2156 19.1901 15.2202 19.0996 15.2247C18.8868 15.2383 18.6786 15.2654 18.4794 15.3514C17.7733 15.6593 17.6601 16.4379 18.2621 16.9177C18.5654 17.1621 18.914 17.3342 19.2716 17.4835C19.8963 17.7416 20.521 17.9905 21.114 18.3165C22.979 19.3576 23.486 21.7251 22.1597 23.3366Z" fill="white"/>
</g>
<defs>
<clipPath id="clip0_232_127">
<rect width="22" height="22" fill="white" transform="translate(8 8)"/>
</clipPath>
</defs>
</svg>
