<svg width="38" height="38" viewBox="0 0 38 38" fill="none" xmlns="http://www.w3.org/2000/svg">
<rect width="38" height="38" rx="11" fill="#298021"/>
<circle cx="19.5" cy="18.5" r="11.5" fill="white"/>
<path d="M24.952 14.6385C24.8911 14.465 24.7747 14.3271 24.6281 14.255C24.556 14.2187 24.4786 14.1994 24.4002 14.1982H21.401C21.242 14.1982 21.0894 14.2731 20.9769 14.4062C20.8644 14.5394 20.8012 14.72 20.8012 14.9083C20.8012 15.0966 20.8644 15.2772 20.9769 15.4104C21.0894 15.5435 21.242 15.6184 21.401 15.6184H22.9546L19.6016 19.5876L17.6281 17.2444C17.5724 17.1778 17.506 17.125 17.4329 17.089C17.3598 17.0529 17.2814 17.0344 17.2023 17.0344C17.1231 17.0344 17.0447 17.0529 16.9716 17.089C16.8985 17.125 16.8321 17.1778 16.7764 17.2444L13.1774 21.5047C13.1212 21.5708 13.0766 21.6493 13.0461 21.7358C13.0157 21.8223 13 21.9152 13 22.0089C13 22.1026 13.0157 22.1954 13.0461 22.282C13.0766 22.3685 13.1212 22.447 13.1774 22.513C13.2332 22.5796 13.2995 22.6324 13.3726 22.6685C13.4457 22.7045 13.5241 22.7231 13.6033 22.7231C13.6825 22.7231 13.7609 22.7045 13.834 22.6685C13.9071 22.6324 13.9734 22.5796 14.0292 22.513L17.2023 18.7497L19.1757 21.0929C19.2315 21.1595 19.2978 21.2123 19.3709 21.2483C19.444 21.2844 19.5224 21.3029 19.6016 21.3029C19.6807 21.3029 19.7592 21.2844 19.8322 21.2483C19.9053 21.2123 19.9717 21.1595 20.0274 21.0929L23.8003 16.6195V18.4586C23.8003 18.6469 23.8635 18.8275 23.976 18.9607C24.0885 19.0938 24.2411 19.1687 24.4002 19.1687C24.5593 19.1687 24.7118 19.0938 24.8243 18.9607C24.9368 18.8275 25 18.6469 25 18.4586V14.9083C24.9991 14.8155 24.9827 14.7238 24.952 14.6385Z" fill="#298021"/>
</svg>
