<svg width="38" height="38" viewBox="0 0 38 38" fill="none" xmlns="http://www.w3.org/2000/svg">
<rect width="38" height="38" rx="11" fill="#298021"/>
<g clip-path="url(#clip0_232_99)">
<path d="M19.4984 8.19336L19 8L18.5016 8.19336L9.58555 11.6523L8.76484 11.9746L8.71328 12.8555C8.58867 14.9996 8.92383 18.2824 10.316 21.4879C11.7211 24.7234 14.2262 27.9332 18.4543 29.7637L19 30L19.5457 29.7637C23.7738 27.9332 26.2789 24.7234 27.684 21.4879C29.0762 18.2781 29.4113 14.9996 29.2867 12.8555L29.2352 11.9746L28.4144 11.6523L19.4984 8.19336ZM19 10.952L26.5625 13.8867C26.541 15.6441 26.1844 18.0461 25.1617 20.3965C24.0359 22.9875 22.1281 25.4668 18.9957 26.9922V10.952H19Z" fill="white"/>
</g>
<defs>
<clipPath id="clip0_232_99">
<rect width="22" height="22" fill="white" transform="translate(8 8)"/>
</clipPath>
</defs>
</svg>
