<svg width="462" height="127" viewBox="0 0 462 127" fill="none" xmlns="http://www.w3.org/2000/svg">
<g clip-path="url(#clip0_232_16)">
<path d="M160.98 91.9878L205.432 32.2374H161.574V20.5193H222.027V31.0649L177.575 90.8188H222.62V102.534H160.98V91.9878Z" fill="black"/>
<path d="M228.545 20.5193H241.584V32.8205H228.545V20.5193ZM229.138 43.9523H240.991V102.534H229.138V43.9523Z" fill="black"/>
<path d="M248.105 43.9526H258.181L259.367 49.2257H259.96C261.976 46.9995 263.872 43.9526 271.223 43.9526H281.893V54.4984H272.409C264.112 54.4984 259.963 58.599 259.963 66.6842V102.537H248.11V43.9558L248.105 43.9526Z" fill="black"/>
<path d="M338.19 82.028C336.294 90.8153 328.707 103.703 310.926 103.703C293.145 103.703 281.292 91.4016 281.292 73.2411C281.292 55.0809 293.738 42.7798 310.926 42.7798C328.114 42.7798 336.294 55.7853 338.19 63.8679H326.337C324.441 58.5951 319.936 53.322 310.929 53.322C300.852 53.322 293.148 61.0553 293.148 73.2379C293.148 85.4209 300.852 93.1569 310.929 93.1569C320.412 93.1569 325.034 86.7117 326.337 82.028H338.19Z" fill="black"/>
<path d="M344.117 43.9526H355.97V79.1011C355.97 86.7155 362.015 93.1608 370.195 93.1608C379.086 93.1608 385.607 86.7155 385.607 79.1011V43.9526H397.461V102.534H386.79L385.604 96.675H385.01C383.707 97.9629 382.285 99.1351 380.625 100.189C377.78 101.948 373.394 103.703 367.823 103.703C353.598 103.703 344.114 94.4487 344.114 79.1011L344.117 43.9526Z" fill="black"/>
<path d="M405.158 20.5193H418.2V32.8205H405.158V20.5193ZM405.753 43.9523H417.605V102.534H405.753V43.9523Z" fill="black"/>
<path d="M433.015 55.0836H423.533V43.955H433.015V27.5532H444.871V43.955H458.504V55.0836H444.871V88.4732C444.871 90.8152 446.057 91.9874 448.426 91.9874H458.504V102.533H446.057C437.639 102.533 433.015 97.8464 433.015 90.232V55.0836Z" fill="black"/>
<path fill-rule="evenodd" clip-rule="evenodd" d="M0 63.7614C0 28.965 27.965 0.758301 62.4573 0.758301C96.9554 0.758301 124.92 28.965 124.917 63.7583C124.917 76.0827 121.408 87.579 115.345 97.2873C113.673 99.962 111.811 102.501 109.77 104.887L62.5399 57.2492L21.9264 98.211L15.2209 104.974C13.1742 102.594 11.3058 100.058 9.63407 97.3865C3.53096 87.6597 0 76.126 0 63.7614ZM108.184 88.3106L108.756 87.1577L108.759 87.1608C112.342 79.9509 114.235 71.8577 114.235 63.7614C114.235 34.9659 91.0089 11.5389 62.46 11.5389C33.9113 11.5389 10.6881 34.9659 10.6881 63.7614C10.6881 71.901 12.5996 80.0284 16.2166 87.266L16.7913 88.413L62.5399 42.2686L108.184 88.3106ZM62.4597 126.758C78.0095 126.758 92.2348 121.027 103.169 111.542L62.5427 70.5619L21.8398 111.613C32.7584 121.058 46.9098 126.758 62.4597 126.758Z" fill="url(#paint0_linear_232_16)"/>
</g>
<defs>
<linearGradient id="paint0_linear_232_16" x1="62.4585" y1="0.758301" x2="62.6462" y2="126.758" gradientUnits="userSpaceOnUse">
<stop stop-color="#169E00"/>
<stop offset="0.49" stop-color="#00C537"/>
<stop offset="1" stop-color="#00B1C9"/>
</linearGradient>
<clipPath id="clip0_232_16">
<rect width="462" height="126" fill="white" transform="translate(0 0.758301)"/>
</clipPath>
</defs>
</svg>
