<svg width="39" height="38" viewBox="0 0 39 38" fill="none" xmlns="http://www.w3.org/2000/svg">
<path fill-rule="evenodd" clip-rule="evenodd" d="M0 19.0009C0 8.50679 8.59529 0 19.1968 0C29.8001 0 38.3955 8.50679 38.3945 19C38.3945 22.7169 37.3158 26.184 35.4522 29.1119C34.9384 29.9186 34.366 30.6843 33.7388 31.404L19.2222 17.0369L6.73927 29.3905L4.6783 31.4303C4.04923 30.7123 3.47496 29.9476 2.96112 29.1418C1.08527 26.2084 0 22.7299 0 19.0009ZM33.2515 26.4047L33.4272 26.057L33.4281 26.0579C34.5295 23.8835 35.1113 21.4427 35.1113 19.0009C35.1113 10.3166 27.9724 3.25128 19.1977 3.25128C10.423 3.25128 3.2851 10.3166 3.2851 19.0009C3.2851 21.4557 3.8726 23.9069 4.98432 26.0896L5.16095 26.4355L19.2222 12.519L33.2515 26.4047ZM19.1976 38C23.9769 38 28.3492 36.2716 31.7098 33.411L19.2231 21.0519L6.71265 33.4325C10.0686 36.2809 14.4182 38 19.1976 38Z" fill="url(#paint0_linear_232_461)"/>
<defs>
<linearGradient id="paint0_linear_232_461" x1="19.1972" y1="-1.78013e-09" x2="19.2527" y2="38" gradientUnits="userSpaceOnUse">
<stop stop-color="#169E00"/>
<stop offset="0.49" stop-color="#00C537"/>
<stop offset="1" stop-color="#00B1C9"/>
</linearGradient>
</defs>
</svg>
