<svg id="图层_1" data-name="图层 1" xmlns="http://www.w3.org/2000/svg" xmlns:xlink="http://www.w3.org/1999/xlink"
    viewBox="0 0 3000 737.59">
    <defs>
        <style>
            .cls-1 {
                fill: url(#未命名的渐变_6);
            }

            .cls-2 {
                fill: #fff;
            }

            .cls-3 {
                fill: #272828;
            }
        </style>
        <linearGradient id="未命名的渐变_6" x1="99.4" y1="28.59" x2="652.45" y2="727" gradientUnits="userSpaceOnUse">
            <stop offset="0" stop-color="#27923a" />
            <stop offset="0.39" stop-color="#3ea543" />
            <stop offset="1" stop-color="#229fab" />
        </linearGradient>
    </defs>
    <rect class="cls-1" width="737.59" height="737.59" rx="34.22" />
    <path class="cls-2"
        d="M582.72,192.49c-20,35.82-68.27,9.49-120.4,41.89C432.5,252.9,419.07,286.26,413,311.44c-6.58,9.33-15.12,18-24.85,20-22.86,4.57-38.29,9-38.29,34.79s15.32,80.63,58.23,92.06S532.75,468,547.61,521.13a164.6,164.6,0,0,1,6,44.89,62.12,62.12,0,0,1-37.18,56.6,275.86,275.86,0,0,1-110.82,23.07c-152.92,0-276.89-124-276.89-276.89S252.7,91.91,405.62,91.91a275.66,275.66,0,0,1,167.65,56.5,34.48,34.48,0,0,1,10.06,42.94C583.13,191.73,582.93,192.11,582.72,192.49Z" />
    <path class="cls-2"
        d="M482.08,304.94a63.11,63.11,0,0,0-10.4,7.71,3.47,3.47,0,0,1-5.71-2c-1.56-8.42-2.3-23.42,10.59-28.38,18.28-7,34.09,5.52,35.05,14.85S488.18,301.7,482.08,304.94Z" />
    <path class="cls-3"
        d="M1186.85,626.1a227.1,227.1,0,0,1-94.63-20,244.61,244.61,0,0,1-77.79-55.46A261.86,261.86,0,0,1,962,468.56Q943,422,943,368.8q0-53.52,19-100.12a259.78,259.78,0,0,1,52.45-81.87,246.15,246.15,0,0,1,77.79-55.29,227.09,227.09,0,0,1,94.63-20q60.26,0,110.93,27.82a250.21,250.21,0,0,1,84,74.25L1304.52,255a156,156,0,0,0-51.93-41.46,147.15,147.15,0,0,0-127-2.31,157.46,157.46,0,0,0-50.33,36.86,172.23,172.23,0,0,0-33.67,54.58,181,181,0,0,0-12,66.1,178.12,178.12,0,0,0,12.23,66.27,175,175,0,0,0,33.85,54.4,157.8,157.8,0,0,0,50.15,36.86A146.81,146.81,0,0,0,1253,523.85a159,159,0,0,0,51.57-41.64L1381.78,524a253.41,253.41,0,0,1-84,74.07Q1247.1,626.11,1186.85,626.1Z" />
    <path class="cls-3"
        d="M1497.32,216.76q-19.14,0-32.26-12.59T1452,172.45q0-18.78,13.11-31.54t31.9-12.76q18.78,0,31.72,12.76t12.94,31.54q0,19.14-12.76,31.72T1497.32,216.76Zm-44,45.71h86.48V616.88h-86.48Z" />
    <path class="cls-3"
        d="M1629.51,616.88l-.36-354.41h86.48L1716,294a133.35,133.35,0,0,1,97.47-41.47,139,139,0,0,1,39,5.67l-34,87.19a72.84,72.84,0,0,0-26.94-5.32,73.85,73.85,0,0,0-38.1,10.1,75.55,75.55,0,0,0-27.29,27.29,73.85,73.85,0,0,0-10.1,38.1v201.3Z" />
    <path class="cls-3"
        d="M2102.29,510.21l78,42.17A185.88,185.88,0,0,1,2119,605.9q-36.87,20.19-80.45,20.2-48.91,0-89.14-25.16t-64.15-67.52q-23.91-42.34-23.92-93.74,0-39,13.82-72.83a191.13,191.13,0,0,1,38.1-59.54,177.16,177.16,0,0,1,56.53-40.23,165.56,165.56,0,0,1,68.76-14.53q43.59,0,80.45,20.2A182.64,182.64,0,0,1,2180.26,327l-78,41.82a87.24,87.24,0,0,0-29.24-22A81.49,81.49,0,0,0,2038.5,339a79.93,79.93,0,0,0-46.08,14,100.37,100.37,0,0,0-32.6,36.85,108.19,108.19,0,0,0,0,99.24,98.91,98.91,0,0,0,32.6,36.68,82.64,82.64,0,0,0,81.16,5.85A90.51,90.51,0,0,0,2102.29,510.21Z" />
    <path class="cls-3"
        d="M2228.82,485.75V262.47h86.47v200.6a72.76,72.76,0,0,0,10.28,38.1A77,77,0,0,0,2353,528.46a73.15,73.15,0,0,0,37.74,10.1q21.27,0,38.28-10.1a77.54,77.54,0,0,0,27.29-27.29,72.86,72.86,0,0,0,10.28-38.1V262.47h86.47l.36,354.41H2467l-.35-32.25a136.87,136.87,0,0,1-43.6,30.3,131.22,131.22,0,0,1-53.87,11.17q-38.62,0-70.52-19a144.06,144.06,0,0,1-50.86-50.68Q2228.82,524.73,2228.82,485.75Z" />
    <path class="cls-3"
        d="M2675.37,216.76q-19.14,0-32.25-12.59T2630,172.45q0-18.78,13.12-31.54T2675,128.15q18.79,0,31.72,12.76t12.94,31.54q0,19.14-12.76,31.72T2675.37,216.76Zm-43.95,45.71h86.48V616.88h-86.48Z" />
    <path class="cls-3" d="M3000,349h-68.76V616.88h-86.47V349h-52.45V262.47h52.45V151.19h86.47V262.47H3000Z" />
</svg>