<svg width="46" height="46" viewBox="0 0 46 46" fill="none" xmlns="http://www.w3.org/2000/svg">
<rect width="46" height="46" rx="15" fill="white"/>
<path d="M22.7123 21.1517C23.8532 21.0478 24.9693 21.5935 25.5894 22.6069C26.5318 24.114 27.648 25.5173 28.9129 26.7905C30.2522 28.0898 30.3762 30.2726 29.4337 31.8836C28.4912 33.5207 26.6311 34.4042 24.8949 33.8845C23.4811 33.4428 21.993 33.4428 20.5793 33.8845C18.7439 34.3782 16.8093 33.4947 15.9412 31.7017C15.0731 30.0127 15.3708 27.752 16.7845 26.5047C17.851 25.5432 18.7687 24.3999 19.5128 23.1266C20.2816 21.9053 21.2737 21.0478 22.7123 21.1517Z" fill="#28933A"/>
<path d="M22.1666 16.2925C22.0922 17.1241 21.993 17.9296 21.8193 18.7351C21.4969 19.9305 20.7528 20.814 19.4879 20.9699C18.2974 21.1258 17.5037 20.4242 16.8837 19.4627C15.0235 16.6044 15.8668 12.8625 18.719 11.3553C20.0832 10.6277 21.0505 11.0175 21.5961 12.5247C21.7449 12.8885 21.8441 13.2782 21.9185 13.694C22.0178 14.4996 22.0674 15.3051 22.1666 16.2925Z" fill="#28933A"/>
<path d="M23.3325 15.7988C23.4813 14.9153 23.5805 13.72 23.9029 12.6026C24.3494 11.0175 25.4407 10.6277 26.8544 11.3813C29.9051 13.0184 30.5996 17.4878 28.1937 20.0604C27.4993 20.8139 26.656 21.1777 25.6391 20.8659C24.4734 20.5021 23.8533 19.5666 23.6053 18.3713C23.4565 17.6697 23.4317 16.8902 23.3325 15.7988Z" fill="#28933A"/>
<path d="M16.7351 23.8803C16.7599 24.1141 16.7351 24.348 16.7351 24.6079C16.5863 25.9071 15.7678 26.6087 14.5029 26.4788C12.4443 26.2709 11.0801 24.6858 11.0057 22.3211C10.9561 20.9179 11.229 19.5407 11.7994 18.2674C12.3699 16.9942 13.2876 16.7863 14.2548 17.7737C15.867 19.4368 16.5615 21.5416 16.7351 23.8803Z" fill="#28933A"/>
<path d="M28.7393 23.7243C28.8881 21.7234 29.6074 19.8005 30.8227 18.2414C31.0955 17.9036 31.3932 17.6177 31.7404 17.4099C32.3853 16.9941 33.0549 17.0721 33.4022 17.7737C34.4935 19.8785 34.9895 22.1392 33.9726 24.4259C33.3774 25.7771 32.2117 26.4008 30.8227 26.4787C29.657 26.5307 28.9129 25.8551 28.7889 24.6338C28.7641 24.3479 28.7641 24.0881 28.7393 23.7243Z" fill="#28933A"/>
</svg>
