<?xml version="1.0" standalone="no"?>
<!DOCTYPE svg PUBLIC "-//W3C//DTD SVG 20010904//EN"
 "http://www.w3.org/TR/2001/REC-SVG-20010904/DTD/svg10.dtd">
<svg version="1.0" xmlns="http://www.w3.org/2000/svg"
 width="774.000000pt" height="774.000000pt" viewBox="0 0 774.000000 774.000000"
 preserveAspectRatio="xMidYMid meet">
<metadata>
Created by potrace 1.14, written by Peter Selinger 2001-2017
</metadata>
<g transform="translate(0.000000,774.000000) scale(0.100000,-0.100000)"
fill="#000000" stroke="none">
<path d="M266 7713 c-108 -32 -191 -115 -232 -229 -16 -46 -17 -228 -19 -3579
0 -2539 2 -3547 10 -3590 6 -33 20 -78 30 -99 28 -58 108 -134 173 -164 52
-23 70 -26 195 -28 76 -1 145 -5 152 -8 7 -2 16 -2 19 1 5 6 197 8 221 3 6 -1
15 -1 20 0 13 2 207 2 220 0 6 -1 15 -1 20 0 13 2 207 2 220 0 6 -1 15 -1 20
0 13 2 207 2 220 0 6 -1 15 -1 20 0 13 2 207 2 220 0 6 -1 15 -1 20 0 13 2
207 2 220 0 6 -1 15 -1 20 0 13 2 207 2 220 0 6 -1 15 -1 20 0 13 2 207 2 220
0 6 -1 15 -2 20 -1 14 3 368 3 380 1 6 -1 15 -1 20 0 13 2 207 2 220 0 6 -1
15 -1 20 0 13 2 207 2 220 0 6 -1 15 -1 20 0 13 2 207 2 220 0 6 -1 15 -1 20
0 13 2 207 2 220 0 6 -1 15 -1 20 0 13 2 207 2 220 0 6 -1 15 -1 20 0 13 2
207 2 220 0 6 -1 15 -1 20 0 13 2 207 2 220 0 6 -1 15 -1 20 0 13 2 207 2 220
0 6 -1 15 -1 20 0 13 2 207 2 220 0 6 -1 13 -2 18 -1 11 3 370 3 382 1 6 -1
15 -1 20 0 13 2 207 2 220 0 6 -1 15 -1 20 0 13 2 207 2 220 0 6 -1 15 -1 20
0 13 2 207 2 220 0 6 -1 15 -1 20 0 13 2 207 2 220 0 6 -1 15 -1 20 0 13 2
207 2 220 0 6 -1 15 -1 20 0 13 2 207 2 220 0 6 -1 15 -1 20 0 13 2 207 2 220
0 6 -1 12 -2 15 -1 3 1 73 3 155 4 140 2 154 4 209 30 83 38 151 110 185 194
l28 67 0 3546 c0 2713 -3 3557 -12 3596 -27 116 -118 216 -229 252 l-66 22
-3553 -1 c-3147 0 -3558 -2 -3601 -16z"/>
</g>
</svg>
